<svg version="1.0" 
 width="300.000000pt" height="300.000000pt" viewBox="0 0 300.000000 300.000000"
 preserveAspectRatio="xMidYMid meet">
<g transform="translate(0.000000,300.000000) scale(0.100000,-0.100000)"
fill="#000000" stroke="none">
<path d="M1380 2390 c-152 -18 -336 -92 -457 -184 -159 -121 -279 -302 -334
-506 -20 -72 -23 -109 -23 -240 1 -139 3 -164 28 -244 51 -168 132 -301 252
-417 115 -109 234 -178 391 -225 77 -24 106 -27 233 -28 161 0 228 12 358 66
152 63 319 198 411 332 161 234 204 550 111 824 -115 336 -415 579 -770 622
-93 11 -105 11 -200 0z m-128 -94 c-20 -23 -29 -42 -25 -55 5 -19 2 -20 -59
-14 -76 7 -151 -14 -198 -54 -17 -14 -30 -20 -30 -14 0 12 119 91 173 115 20
9 52 22 70 30 33 14 62 23 86 25 7 0 0 -14 -17 -33z m568 -17 c0 -4 -20 1 -45
10 -25 9 -45 19 -45 23 0 4 20 0 45 -10 25 -9 45 -19 45 -23z m-150 0 c91 -23
220 -84 292 -137 64 -48 162 -150 207 -215 177 -259 177 -648 0 -911 -171
-254 -476 -407 -752 -376 -92 11 -109 17 -105 43 2 16 -9 25 -57 46 -94 40
-150 77 -221 144 -152 142 -239 299 -274 493 -15 87 -11 119 14 119 17 0 22
-11 31 -80 47 -329 287 -602 583 -663 60 -12 84 -21 88 -34 4 -14 16 -18 57
-18 106 0 263 55 374 131 134 91 292 289 261 326 -6 7 -14 13 -19 13 -4 0 -29
-32 -55 -72 -87 -135 -224 -249 -366 -304 -37 -15 -74 -24 -82 -21 -34 13 -14
35 58 65 496 202 603 836 198 1174 -66 55 -206 123 -285 138 -69 14 -94 30
-82 51 11 17 93 3 188 -32 229 -83 397 -269 457 -505 24 -94 26 -251 5 -343
-16 -66 -10 -89 19 -78 24 9 37 73 43 207 5 107 2 139 -16 210 -68 274 -259
477 -536 571 -59 20 -90 24 -200 24 -71 0 -154 -4 -183 -9 -53 -9 -54 -8 -50
15 2 17 12 25 38 32 115 30 242 28 370 -4z m282 -61 c7 -7 31 -26 53 -42 46
-34 170 -159 186 -187 16 -31 -4 -22 -30 14 -42 56 -178 183 -210 197 -17 7
-31 16 -31 21 0 13 16 11 32 -3z m-454 -23 c2 -12 -8 -31 -23 -45 -49 -46 -17
-103 65 -114 60 -8 132 -30 124 -38 -3 -4 -25 0 -47 8 -25 9 -77 15 -125 15
-75 0 -83 1 -77 17 4 9 8 24 10 33 4 21 -42 72 -85 94 -44 23 -29 34 56 44 90
11 98 10 102 -14z m-273 -23 c107 -38 167 -76 163 -105 -2 -18 -14 -23 -68
-34 -202 -40 -372 -213 -402 -409 -12 -83 -19 -98 -45 -102 -14 -2 -32 10 -56
40 -94 115 -111 206 -58 310 71 140 207 274 318 314 52 18 57 18 148 -14z
m-351 -76 c-77 -75 -84 -72 -9 4 32 33 61 58 63 56 2 -2 -22 -29 -54 -60z
m793 3 c71 -22 100 -44 83 -64 -9 -10 -24 -8 -78 11 -37 13 -93 26 -125 30
-60 7 -73 15 -63 41 5 13 16 14 63 8 32 -4 85 -16 120 -26z m161 -89 c17 -11
58 -46 91 -77 119 -118 181 -252 196 -422 13 -163 -53 -343 -175 -474 l-66
-70 -41 18 -40 18 67 66 c176 174 220 433 111 650 -50 98 -189 230 -268 255
-35 11 -27 25 10 19 24 -4 37 0 51 16 23 26 23 26 64 1z m-1052 -28 c-8 -10
-30 -47 -48 -82 -39 -78 -49 -165 -24 -224 15 -35 14 -37 -3 -31 -21 6 -69
-28 -81 -59 -8 -19 -9 -18 -9 9 -1 38 31 163 53 205 9 18 16 38 16 43 0 6 11
25 25 43 14 18 25 36 25 40 0 15 55 93 59 83 1 -5 -4 -18 -13 -27z m833 -17
c227 -60 382 -259 383 -492 1 -286 -229 -524 -506 -523 -143 1 -255 48 -357
149 -177 177 -209 446 -76 653 63 99 176 182 288 212 70 19 200 20 268 1z
m667 -121 c9 -19 15 -37 12 -39 -2 -3 -14 16 -26 41 -12 25 -18 43 -12 39 5
-3 17 -22 26 -41z m-1570 -364 c1 -95 7 -144 24 -205 29 -105 30 -120 5 -120
-41 0 -92 220 -81 358 6 87 11 100 34 95 15 -3 17 -21 18 -128z m1652 61 c2
-23 -2 -41 -8 -41 -5 0 -10 21 -10 46 0 55 15 51 18 -5z m-1578 -6 c0 -7 -7
-12 -15 -11 -9 1 -15 5 -15 9 0 4 0 14 0 23 0 14 3 14 15 4 8 -7 15 -18 15
-25z m154 -100 c9 -87 20 -132 52 -202 28 -60 27 -74 -1 -43 -12 13 -31 20
-55 20 l-37 0 -23 78 c-13 42 -25 97 -27 122 -2 25 -6 53 -8 63 -3 16 1 18 21
13 15 -4 33 -1 46 8 12 9 23 15 24 13 1 -1 5 -33 8 -72z m1422 -17 c-2 -29 -4
-68 -5 -85 -1 -18 -6 -33 -12 -33 -7 0 -8 16 -3 48 4 26 7 64 8 85 0 20 4 37
8 37 5 0 6 -24 4 -52z m-21 -167 c-4 -17 -11 -31 -17 -31 -6 0 -7 8 -3 18 6
14 11 32 14 51 1 2 4 2 7 -2 3 -3 3 -19 -1 -36z m-1685 -39 c0 -29 58 -92 85
-92 13 0 27 5 30 10 10 16 23 12 30 -10 4 -14 -2 -27 -21 -43 -25 -22 -39 -65
-25 -77 3 -3 19 -25 35 -50 42 -64 129 -150 153 -150 11 0 32 10 47 21 l27 21
27 -24 c38 -34 76 -60 157 -103 39 -21 84 -53 101 -71 29 -32 76 -48 136 -46
10 0 20 -4 24 -9 6 -10 -35 -8 -146 7 -64 9 -197 61 -281 110 -90 52 -234 187
-264 245 -10 19 -21 36 -25 39 -14 10 -61 99 -79 151 -10 30 -22 62 -26 72 -4
10 -3 17 4 17 6 0 11 -8 11 -18z m1660 -29 c-31 -103 -92 -212 -160 -287 -80
-88 -98 -106 -109 -106 -6 0 -11 -4 -11 -8 0 -5 -24 -24 -52 -44 -85 -56 -106
-68 -123 -68 -8 0 -15 -4 -15 -9 0 -9 -51 -25 -66 -21 -4 1 -10 -2 -13 -8 -7
-10 -61 -26 -61 -17 0 4 64 34 85 39 20 5 90 41 93 49 2 4 10 7 18 7 8 0 20 4
27 10 53 43 76 60 81 60 8 0 126 118 168 167 15 17 34 46 43 65 10 18 23 40
30 48 7 8 18 33 25 55 14 43 38 95 45 95 2 0 0 -12 -5 -27z m-1306 -78 c122
-163 283 -245 476 -245 100 0 167 17 262 67 75 39 117 38 90 -3 -11 -17 -140
-80 -201 -98 -71 -21 -224 -21 -305 0 -100 26 -213 90 -286 164 -104 104 -152
190 -105 190 7 0 38 -34 69 -75z m-151 -97 c20 -29 55 -72 78 -95 39 -41 47
-72 22 -80 -14 -5 -62 43 -129 129 -42 54 -52 77 -37 91 15 16 32 4 66 -45z
m752 -258 c0 -10 -12 -16 -34 -18 -47 -5 -81 5 -81 24 0 12 11 14 58 12 43 -2
57 -7 57 -18z"/>
<path d="M1088 2078 c-45 -26 -58 -56 -33 -74 15 -11 24 -10 59 11 48 28 62
46 53 69 -9 22 -35 20 -79 -6z"/>
<path d="M942 1957 c-37 -38 -40 -62 -11 -77 17 -10 25 -6 55 26 37 41 41 53
22 72 -19 19 -32 15 -66 -21z"/>
<path d="M845 1810 c-29 -46 -31 -63 -10 -80 22 -18 38 -7 65 43 20 38 22 48
11 61 -21 25 -39 19 -66 -24z"/>
<path d="M1360 1915 c-169 -48 -303 -201 -330 -380 -38 -246 141 -489 389
-528 268 -41 521 184 521 464 0 186 -122 363 -298 429 -75 29 -207 36 -282 15z
m44 -52 c-17 -37 -8 -83 21 -113 l28 -30 -36 -15 c-20 -8 -39 -15 -43 -15 -4
0 -22 -11 -39 -25 l-33 -24 -5 28 c-8 38 -50 86 -77 88 -12 1 -25 5 -29 8 -17
18 150 115 198 115 18 0 22 -4 15 -17z m281 -29 c103 -57 187 -165 202 -258
l6 -36 -34 14 c-30 13 -34 19 -31 46 9 82 -77 111 -114 38 -14 -28 -14 -30 20
-63 34 -32 34 -34 16 -50 -19 -17 -20 -16 -30 11 -28 78 -94 146 -161 166 -22
6 -39 13 -39 15 0 2 11 16 25 30 28 32 42 80 26 96 -6 6 -11 17 -11 25 0 22
50 8 125 -34z m-163 19 c36 -33 13 -93 -37 -93 -13 0 -31 7 -39 16 -51 50 23
125 76 77z m-274 -151 c34 -44 -13 -107 -64 -84 -30 14 -38 33 -30 67 11 43
65 52 94 17z m295 -33 c91 -25 153 -122 145 -224 -15 -182 -243 -251 -366
-111 -56 64 -66 141 -28 222 46 98 144 143 249 113z m-386 -76 c21 -17 103
-17 103 -1 0 6 2 9 5 6 3 -2 -2 -19 -11 -37 -22 -45 -21 -138 3 -192 11 -24
39 -63 63 -85 l42 -42 -31 -18 c-36 -22 -63 -71 -54 -103 6 -22 5 -23 -23 -8
-78 41 -161 168 -184 280 -14 72 -6 166 21 226 l20 45 15 -29 c8 -17 22 -36
31 -42z m638 27 c0 -18 -6 -26 -23 -28 -24 -4 -38 18 -28 44 3 9 15 14 28 12
17 -2 23 -10 23 -28z m63 -106 c42 -29 17 -104 -35 -104 -22 0 -53 38 -53 64
0 24 32 56 55 56 6 0 21 -7 33 -16z m-88 -109 c25 -27 53 -31 96 -15 26 10 27
10 21 -24 -7 -43 -51 -133 -79 -163 l-21 -22 -28 44 c-22 34 -36 45 -63 51
-42 7 -44 13 -12 51 13 15 29 45 35 66 7 20 16 37 20 37 4 0 18 -11 31 -25z
m-170 -174 c-19 -37 -11 -69 26 -107 42 -41 40 -45 -40 -69 -50 -15 -132 -20
-159 -9 -13 5 -11 11 9 41 27 41 29 58 9 93 -21 38 -19 40 38 40 28 1 66 7 82
15 41 19 47 18 35 -4z m122 -8 c22 -20 23 -51 1 -75 -33 -37 -93 -10 -93 43 0
45 56 65 92 32z m-324 -39 c26 -18 30 -65 7 -84 -38 -32 -95 -4 -95 46 0 22
33 54 55 54 6 0 21 -7 33 -16z"/>
<path d="M1631 1806 c-37 -38 -39 -55 -8 -84 30 -29 58 -28 86 2 29 31 23 63
-17 93 l-29 22 -32 -33z m59 -31 c10 -12 10 -18 0 -30 -7 -8 -18 -15 -25 -15
-19 0 -36 25 -29 44 8 20 38 21 54 1z"/>
<path d="M1102 1530 c-27 -26 -28 -40 -1 -74 30 -38 73 -36 99 6 l19 32 -26
28 c-32 33 -61 36 -91 8z m68 -25 c16 -19 6 -45 -18 -45 -28 0 -43 20 -31 42
12 22 32 23 49 3z"/>
<path d="M1150 1340 c-25 -25 -25 -48 -1 -77 26 -31 65 -29 90 3 46 58 -36
127 -89 74z m65 -40 c0 -18 -6 -26 -21 -28 -23 -3 -37 18 -27 44 10 25 48 13
48 -16z"/>
</g>
</svg>
