<?xml version="1.0" standalone="no"?>
<!DOCTYPE svg PUBLIC "-//W3C//DTD SVG 20010904//EN"
 "http://www.w3.org/TR/2001/REC-SVG-20010904/DTD/svg10.dtd">
<svg version="1.0" xmlns="http://www.w3.org/2000/svg"
 width="667.000000pt" height="589.000000pt" viewBox="0 0 667.000000 589.000000"
 preserveAspectRatio="xMidYMid meet">

<g transform="translate(0.000000,589.000000) scale(0.100000,-0.100000)"
fill="#ea580c" stroke="none">
<path d="M2190 5640 c-307 -8 -340 -13 -466 -70 -157 -71 -314 -222 -393 -377
-24 -49 -124 -290 -325 -791 -286 -711 -290 -718 -349 -781 -118 -124 -194
-263 -240 -434 -22 -81 -22 -92 -22 -812 0 -824 -4 -780 79 -892 48 -66 100
-105 175 -133 50 -20 97 -20 2644 -20 2878 0 2647 -6 2754 67 29 19 63 49 76
66 33 44 73 125 82 167 4 19 7 357 7 750 0 614 -3 725 -16 788 -32 147 -119
311 -234 444 -62 71 -68 83 -203 413 -126 306 -336 822 -394 965 -130 326
-251 469 -487 579 -158 75 -114 72 -1323 75 -594 1 -1208 0 -1365 -4z m2539
-433 c76 -40 148 -112 183 -182 29 -56 138 -314 263 -620 29 -71 80 -193 113
-270 33 -77 57 -145 55 -152 -7 -19 -4059 -19 -4066 0 -6 18 13 67 217 576
106 264 202 487 222 517 42 63 117 121 188 146 48 16 135 17 1411 15 l1360 -2
54 -28z m-3250 -1836 c166 -52 292 -197 321 -372 33 -193 -76 -397 -259 -487
-75 -37 -77 -37 -201 -37 -119 0 -128 1 -190 31 -83 40 -134 81 -187 152 -107
142 -120 319 -37 484 53 105 184 212 290 237 70 16 197 12 263 -8z m3933 -2
c168 -56 290 -198 319 -373 23 -135 -22 -272 -125 -383 -91 -99 -200 -145
-341 -144 -186 0 -337 96 -422 268 -37 76 -38 79 -38 193 0 112 1 117 36 190
62 128 154 211 277 251 82 26 214 25 294 -2z m-1176 -422 c60 -31 73 -116 25
-169 l-29 -33 -911 -3 c-1010 -3 -955 -6 -988 62 -20 43 -11 95 23 127 l26 24
841 6 c996 6 973 7 1013 -14z m-100 -655 c86 -39 147 -120 160 -213 14 -103
-52 -219 -150 -265 l-51 -24 -786 0 c-863 0 -831 -2 -909 60 -22 17 -51 55
-66 85 -23 48 -26 64 -22 128 4 88 37 151 105 200 79 57 70 56 903 54 l765 -2
51 -23z"/>
<path d="M575 4480 c-195 -5 -213 -7 -253 -28 -64 -34 -130 -99 -160 -157 -24
-44 -27 -62 -27 -145 0 -87 3 -100 30 -149 60 -108 167 -171 290 -171 65 0 65
0 84 38 15 29 135 310 244 574 9 21 13 39 9 40 -4 2 -101 1 -217 -2z"/>
<path d="M5810 4478 c0 -2 62 -147 138 -323 l137 -320 50 -3 c179 -11 335 133
335 310 0 98 -30 169 -99 239 -89 88 -128 99 -366 99 -107 0 -195 -1 -195 -2z"/>
<path d="M4672 805 l3 -300 27 -55 c39 -79 109 -146 198 -189 l75 -36 230 -3
c128 -2 263 1 304 6 146 21 266 106 325 232 l31 65 3 287 3 288 -601 2 -601 3
3 -300z"/>
<path d="M732 813 l3 -288 32 -66 c41 -83 120 -159 210 -202 l68 -32 250 -3
c151 -3 273 0 307 7 130 24 248 112 304 226 l29 60 3 293 3 292 -606 0 -606 0
3 -287z"/>
</g>
</svg>
